<?xml version="1.0" encoding="UTF-8"?>
<svg width="301px" height="71px" viewBox="0 0 301 71" version="1.1" xmlns="http://www.w3.org/2000/svg" xmlns:xlink="http://www.w3.org/1999/xlink">
    <title>编组 10 2</title>
    <defs>
        <linearGradient x1="89.2891309%" y1="10.7330122%" x2="11.8557401%" y2="90.2652498%" id="linearGradient-1">
            <stop stop-color="#6DCB33" offset="0%"></stop>
            <stop stop-color="#40E3A8" offset="100%"></stop>
        </linearGradient>
    </defs>
    <g id="页面-2" stroke="none" stroke-width="1" fill="none" fill-rule="evenodd">
        <g id="画板" transform="translate(-111, -224)">
            <g id="编组-10" transform="translate(111, 224)">
                <rect id="矩形" fill="url(#linearGradient-1)" x="0" y="0" width="71" height="71" rx="25"></rect>
                <path d="M35.5697676,8.00000215 C44.4135426,8.00942505 59.3239437,34.8574589 59.3239437,45.2228031 C59.3239437,53.3944659 52.7396948,59.7158303 43.5496083,62.025481 L43.5492958,52.0217413 C43.5492958,47.8796057 40.1914314,44.5217413 36.0492958,44.5217413 L35.2746479,44.5217413 C31.1325123,44.5217413 27.7746479,47.8796057 27.7746479,52.0217413 L27.7743353,62.025481 C18.5842489,59.7158303 12,53.3944659 12,45.2228031 C12,34.8574589 26.7259926,7.99121936 35.5697676,8.00000215 Z M35.6619718,23.2173935 C31.3059231,23.2173935 27.7746479,26.8510245 27.7746479,31.3333355 C27.7746479,35.8156465 31.3059231,39.4492775 35.6619718,39.4492775 C40.0180206,39.4492775 43.5492958,35.8156465 43.5492958,31.3333355 C43.5492958,26.8510245 40.0180206,23.2173935 35.6619718,23.2173935 Z" id="形状结合" fill="#FFFFFF"></path>
                <g id="ALAYA-AI" transform="translate(84, 20)" fill="#4BCC77" fill-rule="nonzero">
                    <path d="M21.9295949,27.4453125 L10.6560072,27.4453125 C10.2266687,27.4453125 9.84524319,27.7193695 9.70826643,28.1262711 L7.77610857,33.8659164 C7.63913181,34.272818 7.25770628,34.546875 6.82836781,34.546875 L1.4186164,34.546875 C0.866331651,34.546875 0.418616401,34.0991597 0.418616401,33.546875 C0.418616401,33.4323392 0.438293031,33.3186546 0.476787784,33.2107815 L12.0912086,0.663906477 C12.2332781,0.265787772 12.610329,1.93875392e-15 13.0330372,1.11022302e-15 L19.7776581,2.22044605e-15 C20.2012503,2.14263343e-15 20.5788887,0.266883451 20.7202937,0.666176534 L32.2463919,33.2130515 C32.4307575,33.7336548 32.158183,34.305145 31.6375797,34.4895106 C31.5303767,34.5274753 31.4174832,34.546875 31.3037563,34.546875 L25.6250926,34.546875 C25.1880545,34.546875 24.8016426,34.263068 24.6708933,33.8460464 L22.8837942,28.1461411 C22.7530449,27.7291195 22.366633,27.4453125 21.9295949,27.4453125 Z M20.2352656,20.189798 L17.2738529,10.8549101 C17.1068478,10.3284808 16.5447082,10.03711 16.018279,10.2041152 C15.7116302,10.3013968 15.4705103,10.5402678 15.3703595,10.8459915 L12.312379,20.1808794 C12.1404482,20.7057206 12.4265387,21.2705658 12.9513799,21.4424965 C13.0518693,21.4754155 13.156944,21.4921875 13.262688,21.4921875 L19.2820812,21.4921875 C19.834366,21.4921875 20.2820812,21.0444722 20.2820812,20.4921875 C20.2820812,20.3895862 20.2662912,20.2875959 20.2352656,20.189798 Z" id="形状"></path>
                    <path d="M38.1015625,0 L43.3203125,0 C43.8725972,3.89074334e-16 44.3203125,0.44771525 44.3203125,1 L44.3203125,27.3359375 C44.3203125,27.8882222 44.7680278,28.3359375 45.3203125,28.3359375 L60.4296875,28.3359375 C60.9819722,28.3359375 61.4296875,28.7836528 61.4296875,29.3359375 L61.4296875,33.546875 C61.4296875,34.0991597 60.9819722,34.546875 60.4296875,34.546875 L38.1015625,34.546875 C37.5492778,34.546875 37.1015625,34.0991597 37.1015625,33.546875 L37.1015625,1 C37.1015625,0.44771525 37.5492778,6.76353751e-17 38.1015625,0 Z" id="路径"></path>
                    <path d="M85.9139699,27.4453125 L74.6403822,27.4453125 C74.2110437,27.4453125 73.8296182,27.7193695 73.6926414,28.1262711 L71.7604836,33.8659164 C71.6235068,34.272818 71.2420813,34.546875 70.8127428,34.546875 L65.4029914,34.546875 C64.8507067,34.546875 64.4029914,34.0991597 64.4029914,33.546875 C64.4029914,33.4323392 64.422668,33.3186546 64.4611628,33.2107815 L76.0755836,0.663906477 C76.2176531,0.265787772 76.594704,1.93875392e-15 77.0174122,1.11022302e-15 L83.7620331,2.22044605e-15 C84.1856253,2.14263343e-15 84.5632637,0.266883451 84.7046687,0.666176534 L96.2307669,33.2130515 C96.4151325,33.7336548 96.142558,34.305145 95.6219547,34.4895106 C95.5147517,34.5274753 95.4018582,34.546875 95.2881313,34.546875 L89.6094676,34.546875 C89.1724295,34.546875 88.7860176,34.263068 88.6552683,33.8460464 L86.8681692,28.1461411 C86.7374199,27.7291195 86.351008,27.4453125 85.9139699,27.4453125 Z M84.2196406,20.189798 L81.2582279,10.8549101 C81.0912228,10.3284808 80.5290832,10.03711 80.002654,10.2041152 C79.6960052,10.3013968 79.4548853,10.5402678 79.3547345,10.8459915 L76.296754,20.1808794 C76.1248232,20.7057206 76.4109137,21.2705658 76.9357549,21.4424965 C77.0362443,21.4754155 77.141319,21.4921875 77.247063,21.4921875 L83.2664562,21.4921875 C83.818741,21.4921875 84.2664562,21.0444722 84.2664562,20.4921875 C84.2664562,20.3895862 84.2506662,20.2875959 84.2196406,20.189798 Z" id="形状"></path>
                    <path d="M128.187587,1.47232776 L117.540452,21.3412204 C117.462608,21.4864862 117.421875,21.6487398 117.421875,21.8135481 L117.421875,33.546875 C117.421875,34.0991597 116.97416,34.546875 116.421875,34.546875 L111.203125,34.546875 C110.65084,34.546875 110.203125,34.0991597 110.203125,33.546875 L110.203125,21.8211334 C110.203125,21.6515019 110.159974,21.4846584 110.07773,21.3362978 L99.0731154,1.48483556 C98.8053481,1.00180438 98.9798539,0.39316196 99.4628851,0.125394673 C99.6112457,0.0431513035 99.7780892,2.53205401e-16 99.9477207,2.22044605e-16 L106.126666,6.66133815e-16 C106.512243,9.37765838e-16 106.863471,0.221676615 107.02937,0.569738969 L113.007314,13.1116994 C113.244941,13.6102493 113.84173,13.8217695 114.34028,13.5841429 C114.552424,13.4830272 114.722179,13.3104255 114.819753,13.0966288 L120.529976,0.584809622 C120.692561,0.228565395 121.048119,2.93978778e-16 121.43971,2.22044605e-16 L127.306164,2.66453526e-15 C127.858449,6.00972611e-16 128.306164,0.44771525 128.306164,1 C128.306164,1.16480834 128.26543,1.3270619 128.187587,1.47232776 Z" id="路径"></path>
                    <path d="M152.593657,27.4453125 L141.32007,27.4453125 C140.890731,27.4453125 140.509306,27.7193695 140.372329,28.1262711 L138.440171,33.8659164 C138.303194,34.272818 137.921769,34.546875 137.49243,34.546875 L132.082679,34.546875 C131.530394,34.546875 131.082679,34.0991597 131.082679,33.546875 C131.082679,33.4323392 131.102356,33.3186546 131.14085,33.2107815 L142.755271,0.663906477 C142.897341,0.265787772 143.274391,1.93875392e-15 143.6971,1.11022302e-15 L150.441721,2.22044605e-15 C150.865313,2.14263343e-15 151.242951,0.266883451 151.384356,0.666176534 L162.910454,33.2130515 C163.09482,33.7336548 162.822246,34.305145 162.301642,34.4895106 C162.194439,34.5274753 162.081546,34.546875 161.967819,34.546875 L156.289155,34.546875 C155.852117,34.546875 155.465705,34.263068 155.334956,33.8460464 L153.547857,28.1461411 C153.417107,27.7291195 153.030696,27.4453125 152.593657,27.4453125 Z M150.899328,20.189798 L147.937915,10.8549101 C147.77091,10.3284808 147.208771,10.03711 146.682341,10.2041152 C146.375693,10.3013968 146.134573,10.5402678 146.034422,10.8459915 L142.976441,20.1808794 C142.804511,20.7057206 143.090601,21.2705658 143.615442,21.4424965 C143.715932,21.4754155 143.821007,21.4921875 143.92675,21.4921875 L149.946144,21.4921875 C150.498428,21.4921875 150.946144,21.0444722 150.946144,20.4921875 C150.946144,20.3895862 150.930354,20.2875959 150.899328,20.189798 Z" id="形状"></path>
                    <path d="M194.359282,27.4453125 L183.085695,27.4453125 C182.656356,27.4453125 182.274931,27.7193695 182.137954,28.1262711 L180.205796,33.8659164 C180.068819,34.272818 179.687394,34.546875 179.258055,34.546875 L173.848304,34.546875 C173.296019,34.546875 172.848304,34.0991597 172.848304,33.546875 C172.848304,33.4323392 172.867981,33.3186546 172.906475,33.2107815 L184.520896,0.663906477 C184.662966,0.265787772 185.040016,1.93875392e-15 185.462725,1.11022302e-15 L192.207346,2.22044605e-15 C192.630938,2.14263343e-15 193.008576,0.266883451 193.149981,0.666176534 L204.676079,33.2130515 C204.860445,33.7336548 204.587871,34.305145 204.067267,34.4895106 C203.960064,34.5274753 203.847171,34.546875 203.733444,34.546875 L198.05478,34.546875 C197.617742,34.546875 197.23133,34.263068 197.100581,33.8460464 L195.313482,28.1461411 C195.182732,27.7291195 194.796321,27.4453125 194.359282,27.4453125 Z M192.664953,20.189798 L189.70354,10.8549101 C189.536535,10.3284808 188.974396,10.03711 188.447966,10.2041152 C188.141318,10.3013968 187.900198,10.5402678 187.800047,10.8459915 L184.742066,20.1808794 C184.570136,20.7057206 184.856226,21.2705658 185.381067,21.4424965 C185.481557,21.4754155 185.586632,21.4921875 185.692375,21.4921875 L191.711769,21.4921875 C192.264053,21.4921875 192.711769,21.0444722 192.711769,20.4921875 C192.711769,20.3895862 192.695979,20.2875959 192.664953,20.189798 Z" id="形状"></path>
                    <path d="M209.96875,0 L215.140625,0 C215.69291,-1.01453063e-16 216.140625,0.44771525 216.140625,1 L216.140625,33.546875 C216.140625,34.0991597 215.69291,34.546875 215.140625,34.546875 L209.96875,34.546875 C209.416465,34.546875 208.96875,34.0991597 208.96875,33.546875 L208.96875,1 C208.96875,0.44771525 209.416465,6.76353751e-17 209.96875,0 Z" id="路径"></path>
                </g>
            </g>
        </g>
    </g>
</svg>