<?xml version="1.0" encoding="UTF-8"?>
<svg id="_图层_2" data-name="图层 2" xmlns="http://www.w3.org/2000/svg" viewBox="0 0 1440.98 551">
  <defs>
    <style>
      .cls-1 {
        stroke-width: 0px;
      }
    </style>
  </defs>
  <g id="_图层_1-2" data-name="图层 1">
    <g>
      <path class="cls-1" d="m1440.41,551c-.38-.03-39.47-3-166.96-3-155.05,0-195.51-15.79-259.21-46.05-123.25-58.55-251.79-148.31-365.19-227.51-147.86-103.26-275.56-192.44-356.59-192.44-101.58,0-175.44,49.94-219.51,91.84C25.17,219.26,1.13,265.27.89,265.73l-.89-.46c.24-.46,24.34-46.6,72.22-92.13,28.13-26.74,58.83-48.06,91.27-63.34,40.55-19.11,83.94-28.8,128.95-28.8,81.35,0,209.17,89.26,357.16,192.62,113.37,79.18,241.87,168.92,365.05,227.43,63.57,30.2,103.95,45.95,258.79,45.95,127.54,0,166.66,2.97,167.04,3l-.08,1Z"/>
      <path class="cls-1" d="m1440.47,540.87c-.38-.03-39.47-3-166.96-3-155.05,0-195.51-15.79-259.21-46.05-123.25-58.55-251.79-148.31-365.19-227.51-147.86-103.26-275.56-192.44-356.59-192.44-101.58,0-175.44,49.94-219.51,91.84C25.23,209.13,1.19,255.15.95,255.6l-.89-.46c.24-.46,24.34-46.6,72.22-92.13,28.13-26.74,58.83-48.06,91.27-63.34,40.55-19.11,83.94-28.8,128.95-28.8,81.35,0,209.17,89.26,357.16,192.62,113.37,79.18,241.87,168.92,365.05,227.43,63.57,30.2,103.95,45.95,258.79,45.95,127.54,0,166.66,2.97,167.04,3l-.08,1Z"/>
      <path class="cls-1" d="m1440.53,530.75c-.38-.03-39.47-3-166.96-3-155.05,0-195.51-15.79-259.21-46.05-123.25-58.55-251.79-148.31-365.19-227.51C501.3,150.93,373.6,61.75,292.57,61.75c-101.58,0-175.44,49.94-219.51,91.84C25.29,199.01,1.25,245.02,1.01,245.48l-.89-.46c.24-.46,24.34-46.6,72.22-92.13,28.13-26.74,58.83-48.06,91.27-63.34,40.55-19.11,83.94-28.8,128.95-28.8,81.35,0,209.17,89.26,357.16,192.62,113.37,79.18,241.87,168.92,365.05,227.43,63.57,30.2,103.95,45.95,258.79,45.95,127.54,0,166.66,2.97,167.04,3l-.08,1Z"/>
      <path class="cls-1" d="m1440.59,520.62c-.38-.03-39.47-3-166.96-3-155.05,0-195.51-15.79-259.21-46.05-123.25-58.55-251.79-148.31-365.19-227.51C501.36,140.8,373.67,51.62,292.63,51.62c-101.58,0-175.44,49.94-219.51,91.84C25.36,188.88,1.31,234.9,1.08,235.35l-.89-.46c.24-.46,24.34-46.6,72.22-92.13,28.13-26.74,58.83-48.06,91.27-63.34,40.55-19.11,83.94-28.8,128.95-28.8,81.35,0,209.17,89.26,357.16,192.62,113.37,79.18,241.87,168.92,365.05,227.43,63.57,30.2,103.95,45.95,258.79,45.95,127.54,0,166.66,2.97,167.04,3l-.08,1Z"/>
      <path class="cls-1" d="m1440.66,510.5c-.38-.03-39.47-3-166.96-3-155.05,0-195.51-15.79-259.21-46.05-123.25-58.55-251.79-148.31-365.19-227.51C501.42,130.68,373.73,41.5,292.69,41.5c-101.58,0-175.44,49.94-219.51,91.84C25.42,178.76,1.38,224.77,1.14,225.23l-.89-.46c.24-.46,24.34-46.6,72.22-92.13,28.13-26.74,58.83-48.06,91.27-63.34,40.55-19.11,83.94-28.8,128.95-28.8,81.35,0,209.17,89.26,357.16,192.62,113.37,79.18,241.87,168.92,365.05,227.43,63.57,30.2,103.95,45.95,258.79,45.95,127.54,0,166.66,2.97,167.04,3l-.08,1Z"/>
      <path class="cls-1" d="m1440.72,500.37c-.38-.03-39.47-3-166.96-3-155.05,0-195.51-15.79-259.21-46.05-123.25-58.55-251.79-148.31-365.19-227.51C501.49,120.55,373.79,31.38,292.76,31.38c-101.58,0-175.44,49.94-219.51,91.84C25.48,168.63,1.44,214.65,1.2,215.1l-.89-.46c.24-.46,24.34-46.6,72.22-92.13,28.13-26.74,58.83-48.06,91.27-63.34,40.55-19.11,83.94-28.8,128.95-28.8,81.35,0,209.17,89.26,357.16,192.62,113.37,79.18,241.87,168.92,365.05,227.43,63.57,30.2,103.95,45.95,258.79,45.95,127.54,0,166.66,2.97,167.04,3l-.08,1Z"/>
      <path class="cls-1" d="m1440.78,490.25c-.38-.03-39.47-3-166.96-3-155.05,0-195.51-15.79-259.21-46.05-123.25-58.55-251.79-148.31-365.19-227.51C501.55,110.43,373.85,21.25,292.82,21.25c-101.58,0-175.44,49.94-219.51,91.84C25.54,158.51,1.5,204.52,1.26,204.98l-.89-.46c.24-.46,24.34-46.6,72.22-92.13,28.13-26.74,58.83-48.06,91.27-63.34,40.55-19.11,83.94-28.8,128.95-28.8,81.35,0,209.17,89.26,357.16,192.62,113.37,79.18,241.87,168.92,365.05,227.43,63.57,30.2,103.95,45.95,258.79,45.95,127.54,0,166.66,2.97,167.04,3l-.08,1Z"/>
      <path class="cls-1" d="m1440.84,480.12c-.38-.03-39.47-3-166.96-3-155.05,0-195.51-15.79-259.21-46.05-123.25-58.55-251.79-148.31-365.19-227.51C501.61,100.3,373.92,11.12,292.88,11.12c-101.58,0-175.44,49.94-219.51,91.84C25.61,148.38,1.56,194.4,1.33,194.85l-.89-.46c.24-.46,24.34-46.6,72.22-92.13,28.13-26.74,58.83-48.06,91.27-63.34,40.55-19.11,83.94-28.8,128.95-28.8,81.35,0,209.17,89.26,357.16,192.62,113.37,79.18,241.87,168.92,365.05,227.43,63.57,30.2,103.95,45.95,258.79,45.95,127.54,0,166.66,2.97,167.04,3l-.08,1Z"/>
      <path class="cls-1" d="m1440.91,470c-.38-.03-39.47-3-166.96-3-155.05,0-195.51-15.79-259.21-46.05-123.25-58.55-251.79-148.31-365.19-227.51C501.67,90.18,373.98,1,292.94,1c-101.58,0-175.44,49.94-219.51,91.84C25.67,138.26,1.63,184.27,1.39,184.73l-.89-.46c.24-.46,24.34-46.6,72.22-92.13,28.13-26.74,58.83-48.06,91.27-63.34C204.55,9.69,247.94,0,292.94,0c81.35,0,209.17,89.26,357.16,192.62,113.37,79.18,241.87,168.92,365.05,227.43,63.57,30.2,103.95,45.95,258.79,45.95,127.54,0,166.66,2.97,167.04,3l-.08,1Z"/>
    </g>
  </g>
</svg>