<?xml version="1.0" encoding="UTF-8"?>
<svg id="_图层_2" data-name="图层 2" xmlns="http://www.w3.org/2000/svg" viewBox="0 0 1440 551">
  <defs>
    <style>
      .cls-1 {
        fill: #e9e9eb;
        stroke-width: 0px;
      }
    </style>
  </defs>
  <g id="_图层_1-2" data-name="图层 1">
    <g>
      <path class="cls-1" d="m1440,551c-.38-.03-39.65-3-167.14-3-155.05,0-195.51-15.79-259.21-46.05-123.25-58.55-251.79-148.31-365.19-227.51-147.86-103.26-275.56-192.44-356.59-192.44-101.58,0-175.44,49.94-219.51,91.84C24.58,219.26.24,266.12,0,266.58v-1.31c.24-.46,23.76-46.6,71.64-92.13,28.13-26.74,58.83-48.06,91.27-63.34,40.55-19.11,83.94-28.8,128.95-28.8,81.35,0,209.17,89.26,357.16,192.62,113.37,79.18,241.87,168.92,365.05,227.43,63.57,30.2,103.95,45.95,258.79,45.95,127.54,0,166.76,2.97,167.14,3v1Z"/>
      <path class="cls-1" d="m1440,540.87c-.38-.03-39.59-3-167.08-3-155.05,0-195.51-15.79-259.21-46.05-123.25-58.55-251.79-148.31-365.19-227.51-147.86-103.26-275.56-192.44-356.59-192.44-101.58,0-175.44,49.94-219.51,91.84C24.65,209.13.24,255.99,0,256.45v-1.31c.24-.46,23.82-46.6,71.7-92.13,28.13-26.74,58.83-48.06,91.27-63.34,40.55-19.11,83.94-28.8,128.95-28.8,81.35,0,209.17,89.26,357.16,192.62,113.37,79.18,241.87,168.92,365.05,227.43,63.57,30.2,103.95,45.95,258.79,45.95,127.54,0,166.7,2.97,167.08,3v1Z"/>
      <path class="cls-1" d="m1440,530.75c-.38-.03-39.53-3-167.02-3-155.05,0-195.51-15.79-259.21-46.05-123.25-58.55-251.79-148.31-365.19-227.51C500.72,150.93,373.02,61.75,291.98,61.75c-101.58,0-175.44,49.94-219.51,91.84C24.71,199.01.24,245.87,0,246.33v-1.31c.24-.46,23.88-46.6,71.76-92.13,28.13-26.74,58.83-48.06,91.27-63.34,40.55-19.11,83.94-28.8,128.95-28.8,81.35,0,209.17,89.26,357.16,192.62,113.37,79.18,241.87,168.92,365.05,227.43,63.57,30.2,103.95,45.95,258.79,45.95,127.54,0,166.64,2.97,167.02,3v1Z"/>
      <path class="cls-1" d="m1440,520.62c-.38-.03-39.47-3-166.95-3-155.05,0-195.51-15.79-259.21-46.05-123.25-58.55-251.79-148.31-365.19-227.51C500.78,140.8,373.08,51.62,292.05,51.62c-101.58,0-175.44,49.94-219.51,91.84C24.77,188.88.24,235.74,0,236.2v-1.31c.24-.46,23.95-46.6,71.83-92.13,28.13-26.74,58.83-48.06,91.27-63.34,40.55-19.11,83.94-28.8,128.95-28.8,81.35,0,209.17,89.26,357.16,192.62,113.37,79.18,241.87,168.92,365.05,227.43,63.57,30.2,103.95,45.95,258.79,45.95,127.54,0,166.57,2.97,166.95,3v1Z"/>
      <path class="cls-1" d="m1440,510.5c-.38-.03-39.4-3-166.89-3-155.05,0-195.51-15.79-259.21-46.05-123.25-58.55-251.79-148.31-365.19-227.51C500.84,130.68,373.14,41.5,292.11,41.5c-101.58,0-175.44,49.94-219.51,91.84C24.83,178.76.24,225.62,0,226.08v-1.31c.24-.46,24.01-46.6,71.89-92.13,28.13-26.74,58.83-48.06,91.27-63.34,40.55-19.11,83.94-28.8,128.95-28.8,81.35,0,209.17,89.26,357.16,192.62,113.37,79.18,241.87,168.92,365.05,227.43,63.57,30.2,103.95,45.95,258.79,45.95,127.54,0,166.51,2.97,166.89,3v1Z"/>
      <path class="cls-1" d="m1440,500.37c-.38-.03-39.34-3-166.83-3-155.05,0-195.51-15.79-259.21-46.05-123.25-58.55-251.79-148.31-365.19-227.51C500.9,120.55,373.21,31.38,292.17,31.38c-101.58,0-175.44,49.94-219.51,91.84C24.9,168.63.24,215.49,0,215.95v-1.31c.24-.46,24.07-46.6,71.95-92.13,28.13-26.74,58.83-48.06,91.27-63.34,40.55-19.11,83.94-28.8,128.95-28.8,81.35,0,209.17,89.26,357.16,192.62,113.37,79.18,241.87,168.92,365.05,227.43,63.57,30.2,103.95,45.95,258.79,45.95,127.54,0,166.45,2.97,166.83,3v1Z"/>
      <path class="cls-1" d="m1440,490.25c-.38-.03-39.28-3-166.77-3-155.05,0-195.51-15.79-259.21-46.05-123.25-58.55-251.79-148.31-365.19-227.51C500.97,110.43,373.27,21.25,292.23,21.25c-101.58,0-175.44,49.94-219.51,91.84C24.96,158.51.24,205.37,0,205.83v-1.31c.24-.46,24.13-46.6,72.01-92.13,28.13-26.74,58.83-48.06,91.27-63.34,40.55-19.11,83.94-28.8,128.95-28.8,81.35,0,209.17,89.26,357.16,192.62,113.37,79.18,241.87,168.92,365.05,227.43,63.57,30.2,103.95,45.95,258.79,45.95,127.54,0,166.39,2.97,166.77,3v1Z"/>
      <path class="cls-1" d="m1440,480.12c-.38-.03-39.22-3-166.7-3-155.05,0-195.51-15.79-259.21-46.05-123.25-58.55-251.79-148.31-365.19-227.51C501.03,100.3,373.33,11.12,292.3,11.12c-101.58,0-175.44,49.94-219.51,91.84C25.02,148.38.24,195.24,0,195.7v-1.31c.24-.46,24.2-46.6,72.08-92.13,28.13-26.74,58.83-48.06,91.27-63.34,40.55-19.11,83.94-28.8,128.95-28.8,81.35,0,209.17,89.26,357.16,192.62,113.37,79.18,241.87,168.92,365.05,227.43,63.57,30.2,103.95,45.95,258.79,45.95,127.54,0,166.32,2.97,166.7,3v1Z"/>
      <path class="cls-1" d="m1440,470c-.38-.03-39.15-3-166.64-3-155.05,0-195.51-15.79-259.21-46.05-123.25-58.55-251.79-148.31-365.19-227.51C501.09,90.18,373.39,1,292.36,1c-101.58,0-175.44,49.94-219.51,91.84C25.08,138.26.24,185.12,0,185.58v-1.31c.24-.46,24.26-46.6,72.14-92.13,28.13-26.74,58.83-48.06,91.27-63.34C203.97,9.69,247.35,0,292.36,0c81.35,0,209.17,89.26,357.16,192.62,113.37,79.18,241.87,168.92,365.05,227.43,63.57,30.2,103.95,45.95,258.79,45.95,127.54,0,166.26,2.97,166.64,3v1Z"/>
    </g>
  </g>
</svg>