<?xml version="1.0" encoding="UTF-8"?>
<svg id="_图层_2" data-name="图层 2" xmlns="http://www.w3.org/2000/svg" viewBox="0 0 1440 325.61">
  <defs>
    <style>
      .cls-1 {
        fill: #e9e9eb;
        stroke-width: 0px;
      }
    </style>
  </defs>
  <g id="_图层_1-2" data-name="图层 1">
    <g>
      <path class="cls-1" d="m1440,325.61h-813.14c-46.57,0-74.93-12.92-75.21-13.05-53.81-25.3-78.41-77.13-102.2-127.25-27.45-57.83-53.37-112.45-122.09-113.32H0v-1h327.36c69.35.88,95.41,55.77,122.99,113.89,23.71,49.96,48.23,101.63,101.72,126.77.28.13,28.45,12.95,74.79,12.95h813.14v1Z"/>
      <path class="cls-1" d="m1440,315.47h-813.14c-46.57,0-74.93-12.92-75.21-13.05-53.81-25.3-78.41-77.13-102.2-127.25-27.45-57.83-53.37-112.45-122.09-113.32H0v-1h327.36c69.35.88,95.41,55.77,122.99,113.89,23.71,49.96,48.23,101.63,101.72,126.77.28.13,28.45,12.95,74.79,12.95h813.14v1Z"/>
      <path class="cls-1" d="m1440,305.33h-813.14c-46.57,0-74.93-12.92-75.21-13.05-53.81-25.3-78.41-77.13-102.2-127.25-27.45-57.83-53.37-112.45-122.09-113.32H0v-1h327.36c69.35.88,95.41,55.77,122.99,113.89,23.71,49.96,48.23,101.63,101.72,126.77.28.13,28.45,12.95,74.79,12.95h813.14v1Z"/>
      <path class="cls-1" d="m1440,295.18h-813.14c-46.57,0-74.93-12.92-75.21-13.05-53.81-25.3-78.41-77.13-102.2-127.25-27.45-57.83-53.37-112.45-122.09-113.32H0v-1h327.36c69.35.88,95.41,55.77,122.99,113.89,23.71,49.96,48.23,101.63,101.72,126.77.28.13,28.45,12.95,74.79,12.95h813.14v1Z"/>
      <path class="cls-1" d="m1440,285.04h-813.14c-46.57,0-74.93-12.92-75.21-13.05-53.81-25.3-78.41-77.13-102.2-127.25-27.45-57.83-53.37-112.45-122.09-113.32H0v-1h327.36c69.35.88,95.41,55.77,122.99,113.89,23.71,49.96,48.23,101.63,101.72,126.77.28.13,28.45,12.95,74.79,12.95h813.14v1Z"/>
      <path class="cls-1" d="m1440,274.9h-813.14c-46.57,0-74.93-12.92-75.21-13.05-53.81-25.3-78.41-77.13-102.2-127.25-27.45-57.83-53.37-112.45-122.09-113.32H0v-1h327.36c69.35.88,95.41,55.77,122.99,113.89,23.71,49.96,48.23,101.63,101.72,126.77.28.13,28.45,12.95,74.79,12.95h813.14v1Z"/>
      <path class="cls-1" d="m1440,264.76h-813.14c-46.57,0-74.93-12.92-75.21-13.05-53.81-25.3-78.41-77.13-102.2-127.25-27.45-57.83-53.37-112.45-122.09-113.32H0v-1h327.36c69.35.88,95.41,55.77,122.99,113.89,23.71,49.96,48.23,101.63,101.72,126.77.28.13,28.45,12.95,74.79,12.95h813.14v1Z"/>
      <path class="cls-1" d="m1440,254.61h-813.14c-46.57,0-74.93-12.92-75.21-13.05-53.81-25.3-78.41-77.13-102.2-127.25C422,56.49,396.08,1.87,327.35,1H0V0h327.36c69.35.88,95.41,55.77,122.99,113.89,23.71,49.96,48.23,101.63,101.72,126.77.28.13,28.45,12.95,74.79,12.95h813.14v1Z"/>
    </g>
  </g>
</svg>