<?xml version="1.0" encoding="UTF-8"?>
<svg id="_图层_2" data-name="图层 2" xmlns="http://www.w3.org/2000/svg" viewBox="0 0 1440.4 818.97">
  <defs>
    <style>
      .cls-1 {
        fill: #e9e9eb;
        stroke-width: 0px;
      }
    </style>
  </defs>
  <g id="_图层_1-2" data-name="图层 1">
    <g>
      <g>
        <path class="cls-1" d="m1440,818.97c-.38-.03-39.65-3-167.14-3-155.05,0-195.51-15.79-259.21-46.05-123.25-58.55-251.79-148.31-365.19-227.51-147.86-103.26-275.56-192.44-356.59-192.44-101.58,0-175.44,49.94-219.51,91.84C24.58,487.23.24,534.09,0,534.55v-1.31c.24-.46,23.76-46.6,71.64-92.13,28.13-26.74,58.83-48.06,91.27-63.34,40.55-19.11,83.94-28.8,128.95-28.8,81.35,0,209.17,89.26,357.16,192.62,113.37,79.18,241.87,168.92,365.05,227.43,63.57,30.2,103.95,45.95,258.79,45.95,127.54,0,166.76,2.97,167.14,3v1Z"/>
        <path class="cls-1" d="m1440,808.85c-.38-.03-39.59-3-167.08-3-155.05,0-195.51-15.79-259.21-46.05-123.25-58.55-251.79-148.31-365.19-227.51-147.86-103.26-275.56-192.44-356.59-192.44-101.58,0-175.44,49.94-219.51,91.84C24.65,477.11.24,523.97,0,524.43v-1.31c.24-.46,23.82-46.6,71.7-92.13,28.13-26.74,58.83-48.06,91.27-63.34,40.55-19.11,83.94-28.8,128.95-28.8,81.35,0,209.17,89.26,357.16,192.62,113.37,79.18,241.87,168.92,365.05,227.43,63.57,30.2,103.95,45.95,258.79,45.95,127.54,0,166.7,2.97,167.08,3v1Z"/>
        <path class="cls-1" d="m1440,798.72c-.38-.03-39.53-3-167.02-3-155.05,0-195.51-15.79-259.21-46.05-123.25-58.55-251.79-148.31-365.19-227.51-147.86-103.26-275.56-192.44-356.59-192.44-101.58,0-175.44,49.94-219.51,91.84C24.71,466.98.24,513.84,0,514.3v-1.31c.24-.46,23.88-46.6,71.76-92.13,28.13-26.74,58.83-48.06,91.27-63.34,40.55-19.11,83.94-28.8,128.95-28.8,81.35,0,209.17,89.26,357.16,192.62,113.37,79.18,241.87,168.92,365.05,227.43,63.57,30.2,103.95,45.95,258.79,45.95,127.54,0,166.64,2.97,167.02,3v1Z"/>
        <path class="cls-1" d="m1440,788.6c-.38-.03-39.47-3-166.95-3-155.05,0-195.51-15.79-259.21-46.05-123.25-58.55-251.79-148.31-365.19-227.51-147.86-103.26-275.56-192.44-356.59-192.44-101.58,0-175.44,49.94-219.51,91.84C24.77,456.86.24,503.72,0,504.18v-1.31c.24-.46,23.95-46.6,71.83-92.13,28.13-26.74,58.83-48.06,91.27-63.34,40.55-19.11,83.94-28.8,128.95-28.8,81.35,0,209.17,89.26,357.16,192.62,113.37,79.18,241.87,168.92,365.05,227.43,63.57,30.2,103.95,45.95,258.79,45.95,127.54,0,166.57,2.97,166.95,3v1Z"/>
        <path class="cls-1" d="m1440,778.47c-.38-.03-39.4-3-166.89-3-155.05,0-195.51-15.79-259.21-46.05-123.25-58.55-251.79-148.31-365.19-227.51-147.86-103.26-275.56-192.44-356.59-192.44-101.58,0-175.44,49.94-219.51,91.84C24.83,446.73.24,493.59,0,494.05v-1.31c.24-.46,24.01-46.6,71.89-92.13,28.13-26.74,58.83-48.06,91.27-63.34,40.55-19.11,83.94-28.8,128.95-28.8,81.35,0,209.17,89.26,357.16,192.62,113.37,79.18,241.87,168.92,365.05,227.43,63.57,30.2,103.95,45.95,258.79,45.95,127.54,0,166.51,2.97,166.89,3v1Z"/>
        <path class="cls-1" d="m1440,768.35c-.38-.03-39.34-3-166.83-3-155.05,0-195.51-15.79-259.21-46.05-123.25-58.55-251.79-148.31-365.19-227.51-147.86-103.26-275.56-192.44-356.59-192.44-101.58,0-175.44,49.94-219.51,91.84C24.9,436.61.24,483.47,0,483.93v-1.31c.24-.46,24.07-46.6,71.95-92.13,28.13-26.74,58.83-48.06,91.27-63.34,40.55-19.11,83.94-28.8,128.95-28.8,81.35,0,209.17,89.26,357.16,192.62,113.37,79.18,241.87,168.92,365.05,227.43,63.57,30.2,103.95,45.95,258.79,45.95,127.54,0,166.45,2.97,166.83,3v1Z"/>
        <path class="cls-1" d="m1440,758.22c-.38-.03-39.28-3-166.77-3-155.05,0-195.51-15.79-259.21-46.05-123.25-58.55-251.79-148.31-365.19-227.51-147.86-103.26-275.56-192.44-356.59-192.44-101.58,0-175.44,49.94-219.51,91.84C24.96,426.48.24,473.34,0,473.8v-1.31c.24-.46,24.13-46.6,72.01-92.13,28.13-26.74,58.83-48.06,91.27-63.34,40.55-19.11,83.94-28.8,128.95-28.8,81.35,0,209.17,89.26,357.16,192.62,113.37,79.18,241.87,168.92,365.05,227.43,63.57,30.2,103.95,45.95,258.79,45.95,127.54,0,166.39,2.97,166.77,3v1Z"/>
        <path class="cls-1" d="m1440,748.1c-.38-.03-39.22-3-166.7-3-155.05,0-195.51-15.79-259.21-46.05-123.25-58.55-251.79-148.31-365.19-227.51-147.86-103.26-275.56-192.44-356.59-192.44-101.58,0-175.44,49.94-219.51,91.84C25.02,416.36.24,463.22,0,463.68v-1.31c.24-.46,24.2-46.6,72.08-92.13,28.13-26.74,58.83-48.06,91.27-63.34,40.55-19.11,83.94-28.8,128.95-28.8,81.35,0,209.17,89.26,357.16,192.62,113.37,79.18,241.87,168.92,365.05,227.43,63.57,30.2,103.95,45.95,258.79,45.95,127.54,0,166.32,2.97,166.7,3v1Z"/>
        <path class="cls-1" d="m1440,737.97c-.38-.03-39.15-3-166.64-3-155.05,0-195.51-15.79-259.21-46.05-123.25-58.55-251.79-148.31-365.19-227.51-147.86-103.26-275.56-192.44-356.59-192.44-101.58,0-175.44,49.94-219.51,91.84C25.08,406.23.24,453.09,0,453.55v-1.31c.24-.46,24.26-46.6,72.14-92.13,28.13-26.74,58.83-48.06,91.27-63.34,40.55-19.11,83.94-28.8,128.95-28.8,81.35,0,209.17,89.26,357.16,192.62,113.37,79.18,241.87,168.92,365.05,227.43,63.57,30.2,103.95,45.95,258.79,45.95,127.54,0,166.26,2.97,166.64,3v1Z"/>
      </g>
      <g>
        <path class="cls-1" d="m1273.92,175.85c-154.84,0-195.22-15.76-258.79-45.95C942.04,95.18,862.07,47.98,789.5,0h-1.81c72.99,48.31,153.45,95.85,227.02,130.8,63.7,30.26,104.16,46.05,259.21,46.05,127.49,0,165.7,2.82,166.08,2.85v-1c-.38-.03-38.54-2.85-166.08-2.85Z"/>
        <path class="cls-1" d="m1273.98,165.73c-154.84,0-195.22-15.76-258.79-45.95-67.93-32.27-142.48-75.52-210.22-119.77h-1.83c68.18,44.59,143.21,88.18,211.62,120.68,63.7,30.26,104.16,46.05,259.21,46.05,127.49,0,165.64,2.82,166.02,2.85v-1c-.38-.03-38.47-2.85-166.02-2.85Z"/>
        <path class="cls-1" d="m1274.05,155.6c-154.84,0-195.22-15.76-258.79-45.95-62.73-29.8-131.84-69.17-194.62-109.65h-1.84c63.23,40.81,132.83,80.53,196.04,110.55,63.7,30.26,104.16,46.05,259.21,46.05,127.49,0,165.57,2.82,165.95,2.85v-1c-.38-.03-38.41-2.85-165.95-2.85Z"/>
        <path class="cls-1" d="m1274.11,145.48c-154.84,0-195.22-15.76-258.79-45.95-57.47-27.3-121.1-62.87-178.81-99.52h-1.87c58.17,36.99,122.29,72.9,180.25,100.43,63.7,30.26,104.16,46.05,259.21,46.05,127.49,0,165.51,2.82,165.89,2.85v-1c-.38-.03-38.35-2.85-165.89-2.85Z"/>
        <path class="cls-1" d="m1274.17,135.35c-154.84,0-195.22-15.76-258.79-45.95-52.14-24.77-110.23-56.61-162.72-89.4h-1.89c52.96,33.13,111.55,65.3,164.18,90.3,63.7,30.26,104.16,46.05,259.21,46.05,127.49,0,165.45,2.82,165.83,2.85v-1c-.38-.03-38.29-2.85-165.83-2.85Z"/>
        <path class="cls-1" d="m1274.23,125.23c-154.84,0-195.22-15.76-258.79-45.95-46.73-22.2-99.23-50.37-146.37-79.27h-1.91c47.63,29.25,100.62,57.75,147.85,80.18,63.7,30.26,104.16,46.05,259.21,46.05,127.49,0,165.39,2.82,165.77,2.85v-1c-.38-.03-38.22-2.85-165.77-2.85Z"/>
        <path class="cls-1" d="m1274.3,115.1c-154.84,0-195.22-15.76-258.79-45.95-41.22-19.58-88.03-44.14-129.68-69.15h-1.95c42.14,25.35,89.47,50.23,131.2,70.05,63.7,30.26,104.16,46.05,259.21,46.05,127.49,0,165.32,2.82,165.7,2.85v-1c-.38-.03-38.16-2.85-165.7-2.85Z"/>
        <path class="cls-1" d="m1274.36,104.98c-154.84,0-195.22-15.76-258.79-45.95-35.59-16.91-76.63-37.91-112.62-59.02h-1.97c36.5,21.46,78.06,42.78,114.17,59.93,63.7,30.26,104.16,46.05,259.21,46.05,114.76,0,157.9,2.25,165.64,2.76.86.06-.04.09,0,.09v-1s.91-.04,0-.1c-7.96-.51-51.21-2.75-165.64-2.75Z"/>
        <path class="cls-1" d="m1273.86,185.98c-154.84,0-195.22-15.76-258.79-45.95C936.85,102.87,851.49,51.64,774.21,0h-1.8c77.69,51.96,163.53,103.55,242.23,140.93,63.7,30.26,104.16,46.05,259.21,46.05,127.49,0,165.76,2.82,166.14,2.85v-1c-.38-.03-38.6-2.85-166.14-2.85Z"/>
      </g>
    </g>
  </g>
</svg>