<?xml version="1.0" encoding="UTF-8"?>
<svg id="_图层_2" data-name="图层 2" xmlns="http://www.w3.org/2000/svg" viewBox="0 0 1440 735.9">
  <defs>
    <style>
      .cls-1 {
        fill: #e9e9eb;
        stroke-width: 0px;
      }
    </style>
  </defs>
  <g id="_图层_1-2" data-name="图层 1">
    <g>
      <path class="cls-1" d="m474.36,655.9c-54.12,0-112.76-11.98-174.28-35.61-49.21-18.9-100.36-45.24-152.04-78.31C60.05,485.7.59,428.68,0,428.11v-1.89c.59.57,60.68,58.7,148.59,114.94,81.11,51.89,203.47,113.74,325.77,113.74,59.78,0,147.72-34.42,261.36-102.3,90.96-54.33,198.48-130.1,319.58-225.18C1261.5,165.5,1438.24,1.64,1440,0v2.15c-1.76,1.64-177.85,164.11-384.07,326.04-121.13,95.12-228.69,170.9-319.69,225.26-113.8,67.98-201.91,102.44-261.88,102.44Z"/>
      <path class="cls-1" d="m474.36,665.9c-54.12,0-112.76-11.98-174.28-35.61-49.21-18.9-100.36-45.24-152.04-78.31C60.05,495.7.59,438.68,0,438.11v-1.89c.59.57,60.68,58.7,148.59,114.94,81.11,51.89,203.47,113.74,325.77,113.74,59.78,0,147.72-34.42,261.36-102.3,90.96-54.33,198.48-130.1,319.58-225.18C1261.5,175.5,1438.24,11.64,1440,10v2.15c-1.76,1.64-177.85,164.11-384.07,326.04-121.13,95.12-228.69,170.9-319.69,225.26-113.8,67.98-201.91,102.44-261.88,102.44Z"/>
      <path class="cls-1" d="m474.36,675.9c-54.12,0-112.76-11.98-174.28-35.61-49.21-18.9-100.36-45.24-152.04-78.31C60.05,505.7.59,448.68,0,448.11v-1.89c.59.57,60.68,58.7,148.59,114.94,81.11,51.89,203.47,113.74,325.77,113.74,59.78,0,147.72-34.42,261.36-102.3,90.96-54.33,198.48-130.1,319.58-225.18C1261.5,185.5,1438.24,21.64,1440,20v2.15c-1.76,1.64-177.85,164.11-384.07,326.04-121.13,95.12-228.69,170.9-319.69,225.26-113.8,67.98-201.91,102.44-261.88,102.44Z"/>
      <path class="cls-1" d="m474.36,685.9c-54.12,0-112.76-11.98-174.28-35.61-49.21-18.9-100.36-45.24-152.04-78.31C60.05,515.7.59,458.68,0,458.11v-1.89c.59.57,60.68,58.7,148.59,114.94,81.11,51.89,203.47,113.74,325.77,113.74,59.78,0,147.72-34.42,261.36-102.3,90.96-54.33,198.48-130.1,319.58-225.18C1261.5,195.5,1438.24,31.64,1440,30v2.15c-1.76,1.64-177.85,164.11-384.07,326.04-121.13,95.12-228.69,170.9-319.69,225.26-113.8,67.98-201.91,102.44-261.88,102.44Z"/>
      <path class="cls-1" d="m474.36,695.9c-54.12,0-112.76-11.98-174.28-35.61-49.21-18.9-100.36-45.24-152.04-78.31C60.05,525.7.59,468.68,0,468.11v-1.89c.59.57,60.68,58.7,148.59,114.94,81.11,51.89,203.47,113.74,325.77,113.74,59.78,0,147.72-34.42,261.36-102.3,90.96-54.33,198.48-130.1,319.58-225.18,206.2-161.91,382.94-325.78,384.7-327.41v2.15c-1.76,1.64-177.85,164.11-384.07,326.04-121.13,95.12-228.69,170.9-319.69,225.26-113.8,67.98-201.91,102.44-261.88,102.44Z"/>
      <path class="cls-1" d="m474.36,705.9c-54.12,0-112.76-11.98-174.28-35.61-49.21-18.9-100.36-45.24-152.04-78.31C60.05,535.7.59,478.68,0,478.11v-1.89c.59.57,60.68,58.7,148.59,114.94,81.11,51.89,203.47,113.74,325.77,113.74,59.78,0,147.72-34.42,261.36-102.3,90.96-54.33,198.48-130.1,319.58-225.18,206.2-161.91,382.94-325.78,384.7-327.41v2.15c-1.76,1.64-177.85,164.11-384.07,326.04-121.13,95.12-228.69,170.9-319.69,225.26-113.8,67.98-201.91,102.44-261.88,102.44Z"/>
      <path class="cls-1" d="m474.36,715.9c-54.12,0-112.76-11.98-174.28-35.61-49.21-18.9-100.36-45.24-152.04-78.31C60.05,545.7.59,488.68,0,488.11v-1.89c.59.57,60.68,58.7,148.59,114.94,81.11,51.89,203.47,113.74,325.77,113.74,59.78,0,147.72-34.42,261.36-102.3,90.96-54.33,198.48-130.1,319.58-225.18,206.2-161.91,382.94-325.78,384.7-327.41v2.15c-1.76,1.64-177.85,164.11-384.07,326.04-121.13,95.12-228.69,170.9-319.69,225.26-113.8,67.98-201.91,102.44-261.88,102.44Z"/>
      <path class="cls-1" d="m474.36,725.9c-54.12,0-112.76-11.98-174.28-35.61-49.21-18.9-100.36-45.24-152.04-78.31C60.05,555.7.59,498.68,0,498.11v-1.89c.59.57,60.68,58.7,148.59,114.94,81.11,51.89,203.47,113.74,325.77,113.74,59.78,0,147.72-34.42,261.36-102.3,90.96-54.33,198.48-130.1,319.58-225.18,206.2-161.91,382.94-325.78,384.7-327.41v2.15c-1.76,1.64-177.85,164.11-384.07,326.04-121.13,95.12-228.69,170.9-319.69,225.26-113.8,67.98-201.91,102.44-261.88,102.44Z"/>
      <path class="cls-1" d="m474.36,735.9c-54.12,0-112.76-11.98-174.28-35.61-49.21-18.9-100.36-45.24-152.04-78.31C60.05,565.7.59,508.68,0,508.11v-1.89c.59.57,60.68,58.7,148.59,114.94,81.11,51.89,203.47,113.74,325.77,113.74,59.78,0,147.72-34.42,261.36-102.3,90.96-54.33,198.48-130.1,319.58-225.18,206.2-161.91,382.94-325.78,384.7-327.41v2.15c-1.76,1.64-177.85,164.11-384.07,326.04-121.13,95.12-228.69,170.9-319.69,225.26-113.8,67.98-201.91,102.44-261.88,102.44Z"/>
    </g>
  </g>
</svg>